<svg width="45" height="84" viewBox="0 0 45 84" fill="none" xmlns="http://www.w3.org/2000/svg">
<path d="M0.272 43.216C0.272 40.576 0.536 37.792 1.064 34.864C1.544 31.936 2.312 29.08 3.368 26.296C4.472 23.512 5.84 21.016 7.472 18.808L7.472 13.552C10.208 10.96 15.176 9.664 22.376 9.664C24.2 9.664 26 9.832 27.776 10.168C29.6 10.504 31.256 10.96 32.744 11.536C34.232 12.112 35.384 12.76 36.2 13.48C36.248 13.576 36.248 13.864 36.2 14.344C36.152 14.872 36.104 15.424 36.056 16C36.056 16.624 36.056 17.128 36.056 17.512C36.056 18.376 36.104 19.096 36.2 19.672C36.344 20.296 36.656 21.016 37.136 21.832C37.616 22.648 38.384 23.728 39.44 25.072C41.216 27.328 42.44 29.296 43.112 30.976C43.784 32.656 44.12 34.576 44.12 36.736C44.12 41.68 43.496 45.688 42.248 48.76C41.624 50.344 41.12 51.736 40.736 52.936C40.352 54.184 40.064 55.12 39.872 55.744C39.68 56.608 39.32 57.376 38.792 58.048C38.744 59.104 38.672 60.136 38.576 61.144C38.48 62.2 38.384 63.256 38.288 64.312C38.096 65.992 37.88 67.768 37.64 69.64C37.448 71.56 37.256 73.264 37.064 74.752C36.728 77.728 36.104 79.864 35.192 81.16C34.28 82.504 32.96 83.176 31.232 83.176C27.92 83.176 26.264 80.824 26.264 76.12C26.264 75.304 26.288 74.128 26.336 72.592C26.432 71.104 26.48 69.592 26.48 68.056C26.48 66.904 26.456 65.776 26.408 64.672C26.36 63.568 26.288 62.488 26.192 61.432C25.088 62.2 23.696 62.584 22.016 62.584C19.856 62.584 18.32 61.552 17.408 59.488C17.12 58.816 16.76 58.48 16.328 58.48C15.944 58.48 15.464 58.6 14.888 58.84C14.36 59.08 13.76 59.2 13.088 59.2C10.592 59.2 8.936 58.024 8.12 55.672C8.024 55.336 7.88 55.12 7.688 55.024C7.544 54.976 7.208 54.952 6.68 54.952C4.52 54.952 2.912 53.944 1.856 51.928C0.8 49.96 0.272 47.056 0.272 43.216ZM2.72 43.216V46.096C2.912 45.52 3.152 44.824 3.44 44.008C3.776 43.24 4.232 42.304 4.808 41.2C5.576 39.76 6.416 38.464 7.328 37.312C8.24 36.16 9.08 35.32 9.848 34.792C10.232 34.648 10.712 34.576 11.288 34.576C11.768 34.576 12.2 34.672 12.584 34.864C13.016 35.056 13.376 35.272 13.664 35.512C14.144 34.6 14.6 33.76 15.032 32.992C15.464 32.272 15.848 31.72 16.184 31.336C16.424 31.144 16.712 30.976 17.048 30.832C17.432 30.688 17.864 30.592 18.344 30.544C18.152 29.92 18.008 29.224 17.912 28.456C17.816 27.736 17.768 26.968 17.768 26.152C17.768 24.952 17.888 23.872 18.128 22.912H20.648C20.552 23.296 20.48 23.8 20.432 24.424C20.384 25.096 20.36 25.672 20.36 26.152C20.36 27.16 20.408 28.072 20.504 28.888C20.648 29.704 20.888 30.424 21.224 31.048C22.472 31.768 23.168 32.848 23.312 34.288C24.032 34.048 24.728 33.928 25.4 33.928C26.648 33.928 27.704 34.312 28.568 35.08C29.48 35.848 29.936 36.976 29.936 38.464C29.936 38.992 29.864 39.52 29.72 40.048C29.576 40.624 29.384 41.2 29.144 41.776C29.384 41.968 29.648 42.16 29.936 42.352C30.224 42.544 30.536 42.736 30.872 42.928C31.304 41.296 31.808 40.192 32.384 39.616L34.112 41.56C33.872 41.8 33.608 42.376 33.32 43.288C33.08 44.2 32.84 45.28 32.6 46.528C32.36 47.776 32.144 49 31.952 50.2C31.808 51.4 31.736 52.36 31.736 53.08C31.736 54.04 32.048 54.904 32.672 55.672C33.296 56.488 34.28 56.896 35.624 56.896H36.344V56.824C36.44 56.824 36.608 56.632 36.848 56.248C37.088 55.864 37.256 55.48 37.352 55.096C37.544 54.472 37.832 53.512 38.216 52.216C38.648 50.92 39.2 49.432 39.872 47.752C40.976 45.016 41.528 41.344 41.528 36.736C41.528 34.864 41.24 33.208 40.664 31.768C40.088 30.376 38.984 28.672 37.352 26.656C36.248 25.264 35.408 24.088 34.832 23.128C34.256 22.168 33.872 21.256 33.68 20.392C33.536 19.576 33.464 18.616 33.464 17.512C33.464 17.176 33.464 16.744 33.464 16.216C33.512 15.688 33.56 15.208 33.608 14.776C32.36 14.056 30.704 13.456 28.64 12.976C26.576 12.496 24.488 12.256 22.376 12.256C16.664 12.256 12.56 13.096 10.064 14.776L10.064 19.672C8.576 21.448 7.28 23.584 6.176 26.08C5.072 28.576 4.208 31.288 3.584 34.216C3.008 37.144 2.72 40.144 2.72 43.216ZM5.096 6.64C5.096 5.488 5.648 4.504 6.752 3.688C7.856 2.92 9.272 2.32 11 1.888C12.728 1.456 14.552 1.144 16.472 0.952C18.44 0.76 20.24 0.664 21.872 0.664C23.504 0.664 25.28 0.76 27.2 0.952C29.168 1.144 31.016 1.456 32.744 1.888C34.472 2.368 35.888 2.992 36.992 3.76C38.144 4.528 38.72 5.488 38.72 6.64V12.04C38.72 13 38.144 13.48 36.992 13.48H36.848C37.184 13.192 37.352 12.832 37.352 12.4C37.352 11.392 36.848 10.552 35.84 9.88C34.88 9.208 33.608 8.68 32.024 8.296C30.488 7.96 28.808 7.696 26.984 7.504C25.208 7.36 23.504 7.288 21.872 7.288C20.24 7.288 18.512 7.36 16.688 7.504C14.864 7.696 13.16 7.984 11.576 8.368C10.04 8.8 8.768 9.328 7.76 9.952C6.8 10.624 6.32 11.44 6.32 12.4C6.32 12.832 6.56 13.192 7.04 13.48H6.536C6.152 13.48 5.816 13.36 5.528 13.12C5.24 12.928 5.096 12.568 5.096 12.04V6.64ZM26.264 51.496C27.128 51.736 27.776 52.312 28.208 53.224C28.64 54.136 28.856 55.12 28.856 56.176C28.856 56.848 28.832 57.376 28.784 57.76C28.784 58.144 28.736 58.504 28.64 58.84C28.736 60.28 28.832 61.816 28.928 63.448C29.024 65.128 29.072 66.664 29.072 68.056C29.072 69.592 29.024 71.128 28.928 72.664C28.88 74.2 28.856 75.352 28.856 76.12C28.856 77.848 29.048 79.024 29.432 79.648C29.816 80.272 30.416 80.584 31.232 80.584C32.144 80.584 32.816 80.128 33.248 79.216C33.728 78.352 34.136 76.744 34.472 74.392C34.712 72.952 34.928 71.296 35.12 69.424C35.312 67.6 35.504 65.776 35.696 63.952C35.792 63.328 35.864 62.608 35.912 61.792C35.96 61.024 36.008 60.232 36.056 59.416H35.696C33.632 59.416 32.024 58.792 30.872 57.544C29.72 56.344 29.144 54.904 29.144 53.224C29.144 52.312 29.24 51.136 29.432 49.696C29.624 48.256 29.888 46.84 30.224 45.448C29.888 45.256 29.552 45.064 29.216 44.872C28.88 44.68 28.544 44.464 28.208 44.224V44.296C28.016 44.92 27.704 45.808 27.272 46.96C26.888 48.112 26.552 49.624 26.264 51.496ZM17.984 54.016C17.984 55.024 18.512 56.392 19.568 58.12C20.096 58.936 20.48 59.44 20.72 59.632C20.96 59.872 21.32 59.992 21.8 59.992C22.664 59.992 23.48 59.896 24.248 59.704C25.064 59.512 25.736 59.08 26.264 58.408C26.312 58.168 26.336 57.928 26.336 57.688C26.336 57.496 26.336 57.304 26.336 57.112C26.336 55.768 26.072 54.832 25.544 54.304C25.064 53.824 24.344 53.584 23.384 53.584C23.624 51.232 23.96 49.312 24.392 47.824C24.872 46.384 25.352 44.992 25.832 43.648C26.12 42.736 26.504 41.824 26.984 40.912C27.464 40 27.656 39.136 27.56 38.32C27.512 37.936 27.344 37.528 27.056 37.096C26.816 36.664 26.36 36.448 25.688 36.448C25.4 36.448 25.064 36.496 24.68 36.592C24.296 36.736 24.056 36.832 23.96 36.88C23.432 37.552 22.76 38.584 21.944 39.976C21.128 41.416 20.312 43.312 19.496 45.664C19.016 47.056 18.632 48.568 18.344 50.2C18.104 51.832 17.984 53.104 17.984 54.016ZM9.992 52.864C9.992 53.968 10.208 54.904 10.64 55.672C11.072 56.488 11.792 56.896 12.8 56.896C13.376 56.896 13.928 56.824 14.456 56.68C14.984 56.584 15.416 56.464 15.752 56.32C15.512 55.744 15.392 55.096 15.392 54.376C15.392 53.848 15.464 53.056 15.608 52C15.752 50.944 15.944 49.816 16.184 48.616C16.424 47.464 16.712 46.36 17.048 45.304C17.576 43.672 18.2 42.088 18.92 40.552C19.64 39.064 20.36 37.744 21.08 36.592C21.32 35.968 21.44 35.44 21.44 35.008C21.44 34.384 21.2 33.88 20.72 33.496C20.24 33.112 19.688 32.92 19.064 32.92C18.488 32.92 17.936 33.088 17.408 33.424C17.072 33.904 16.616 34.672 16.04 35.728C15.464 36.784 14.864 37.936 14.24 39.184C13.664 40.48 13.16 41.656 12.728 42.712C11.912 44.824 11.24 46.696 10.712 48.328C10.232 50.008 9.992 51.52 9.992 52.864ZM4.448 50.128C4.448 51.28 4.784 52 5.456 52.288C6.176 52.624 6.8 52.792 7.328 52.792C7.52 52.792 7.664 52.768 7.76 52.72V52.216C7.76 50.248 8.096 48.376 8.768 46.6C9.488 44.872 10.112 43.336 10.64 41.992C10.88 41.416 11.168 40.768 11.504 40.048C11.84 39.328 12.176 38.608 12.512 37.888C12.032 37.408 11.432 37.12 10.712 37.024C10.184 37.408 9.56 38.032 8.84 38.896C8.168 39.76 7.568 40.672 7.04 41.632C6.56 42.496 6.128 43.288 5.744 44.008C5.36 44.776 5.048 45.616 4.808 46.528C4.568 47.488 4.448 48.688 4.448 50.128Z" fill="#EAE9E0"/>
</svg>
